<svg xmlns="http://www.w3.org/2000/svg" width="490" height="178.306" viewBox="0 0 490 178.306"><path d="M490.5-720.5ZM78.816-616.218H57.667l6.177-28.374,21.464-.419Zm-38.844.1H34.528a3.591,3.591,0,0,0-3.665-3.036,3.461,3.461,0,0,0-3.56,3.56,3.575,3.575,0,0,0,3.665,3.664,3.739,3.739,0,0,0,3.56-3.56h5.235l-1.989,9.109h-5.34a3.636,3.636,0,0,0-3.665-3.664,3.487,3.487,0,0,0-3.56,3.664,3.69,3.69,0,0,0,3.56,3.665,3.932,3.932,0,0,0,3.56-3.036h5.34l-1.885,8.271H30.549c-.419-2.513-1.885-3.455-3.665-3.455a3.69,3.69,0,0,0-3.665,3.56,3.768,3.768,0,0,0,3.665,3.665,3.642,3.642,0,0,0,3.56-3.141h5.235l-1.885,8.586H28.246a3.518,3.518,0,0,0-3.665-3.56,3.487,3.487,0,0,0-3.56,3.665,3.551,3.551,0,0,0,3.665,3.56c1.466,0,2.932-.838,3.56-3.141h5.34l-1.885,8.69H26.466a3.823,3.823,0,0,0-3.665-3.56,3.487,3.487,0,0,0-3.56,3.665,3.555,3.555,0,0,0,3.56,3.665c1.571,0,3.036-1.152,3.665-3.246h5.026l-1.885,8.69H24.372a3.476,3.476,0,0,0-3.56-3.665,3.555,3.555,0,0,0-3.665,3.56,3.552,3.552,0,0,0,3.56,3.665,3.692,3.692,0,0,0,3.665-3.036H29.5l-6.177,27.118H.919l5.444-25.024C3.85-571.2.5-574.652.5-578.316c0-.314,1.885-10.889,3.036-16.124.314-1.78.733-3.769,1.152-5.444.314-1.571.628-3.246,1.047-4.712.419-1.989.942-4.083,1.466-5.968a26.984,26.984,0,0,1,1.047-3.455c1.675-4.712,9.109-4.188,10.261-7.434,2.618-7.538,4.188-15.391,6.177-23.139l21.568-.314Zm369.175-1.152H349.154l1.989-10.47,60.936-.419Zm-65.857-2.617c0,.314-.1,1.78-.1,2.827H287.694c.314-.838.524-1.78.838-2.513,2.932-7.643,10.156-7.434,15.286-7.853l8.481-.209,21.254-.1C340.778-627.212,343.291-625.536,343.291-619.883ZM221.1-626.9l-2.094,10.261h-51.2c.733-3.036,4.712-9,8.585-9.423.314,0,.838-.209,1.256-.209,1.78-.209,3.56-.314,5.34-.419l6.6-.209Zm61.355,0-2.094,9.947h-20.94l2.3-9.947Zm-36.645,10.051H225.083c.733-3.036,1.361-6.282,2.094-9.528.209,0,.314-.1.628-.1l20.312-.1Zm-84.389-5.026a11.38,11.38,0,0,1,.523,1.466c.1.628.419,1.571.419,1.885v2.094H112.53l2.094-9.737h37.692C154.724-626.164,160.274-625.013,161.425-621.872ZM107.4-626.06l-1.989,9.737H85.726l2.094-9.737Zm301.224,10.575-21.359.419-1.885,7.643H365.068l1.57-7.224h-17.9c.1-.838.209-1.466.314-2.094h59.889C408.833-616.427,408.729-615.9,408.624-615.485Zm-67.218,8.167H322.141a17.955,17.955,0,0,0,.419-2.513v-2.094c-.314-1.152-.628-1.675-1.675-1.675H312.09a19.592,19.592,0,0,0-3.56.314c-2.722.838-2.722,3.874-3.246,6.073H285.6l1.989-9.423h55.491Zm-61.25-9-1.989,9.214h-20.94l2.094-9.214Zm-34.551.1-2.2,9.214H222.885l2.094-9.214ZM218.7-615.8c-3.141,1.152-6.91,1.047-10.051,1.466l-5.759.209h-10.68c-1.57.314-5.34-.209-5.34,2.827,0,1.885,2.618,3.246,4.083,4.5H166.87a7.079,7.079,0,0,1-.419-1.57v-2.094a30.8,30.8,0,0,1,1.256-5.654h51.2C218.8-616.009,218.8-615.8,218.7-615.8Zm-56.329.628L160.9-606.69h-20a6.417,6.417,0,0,0-.419-2.827c-1.047-2.2-3.35-1.57-4.921-1.78l-24.186.419,1.047-5.026h49.942Zm-57.167-.524-1.989,9.109H83.528l2.094-9.109Zm-26.594.1-1.989,9.109H42.276c.628-2.513,1.256-5.235,1.989-7.957h.524l11.517.314c1.256.419.942-.942,1.256-1.466ZM383.5-598.628H363.184l1.78-8.271h20.312Zm-44.079.1h-19.16l1.78-8.271H341.2Zm-63.135.209H245.814l1.256-5.444h7.853c.524-.1,1.047-.1,1.571-.209.209-.733.419-1.675.628-2.617h20.94Zm28.793-8.271-1.78,8.167h-19.37l1.571-8.167Zm-61.773.209-1.885,8.167H221l1.78-8.167Zm-49.524,1.256c3.455,2.3,7.224,4.712,10.889,7.12H175.874c-2.827-1.675-7.643-4.816-8.795-8.167l24.5-.1A22.188,22.188,0,0,1,193.778-605.12ZM158.494-597.9H138.705a73.557,73.557,0,0,0,2.094-8.271h19.893Zm-55.387-8.062-1.78,8.271-19.684.1c.628-2.722,1.256-5.549,1.78-8.271.209,0,.419-.1.628-.1Zm-28.583,8.376H40.182l1.989-8.271H76.408Zm306.983,8.062H361.09l1.885-8.586h20.417ZM339.312-597.9l-1.78,8.586H318.058l2.094-8.586Zm-36.226.1-1.989,8.585h-19.16l1.885-8.585Zm-28.793,8.69H243.825l1.885-8.585h30.468Zm-34.865.1H219.011l1.78-8.585h20.521Zm-32.457-7.748a6.626,6.626,0,0,1,2.932,1.989,4.188,4.188,0,0,1,1.047,1.884,13.441,13.441,0,0,1,.733,2.722v1.257H190.427c-4.188-4.5-9.214-5.34-13.506-8.481l28.479-.1C205.923-597.267,206.342-596.953,206.97-596.744Zm-48.686-.524-2.618,8.586h-48.9l.628-2.932,25.024-.314a3.056,3.056,0,0,1,.942-.209c2.094-.1,4.712-3.246,5.13-5.13Zm-59.051,8.795H79.654l1.885-8.69h19.684Zm-26.8.1H51.28c.1-.733.314-1.361.419-2.094H38.506l1.466-6.6H74.419Zm307.088,7.853H359.1L360.985-589H381.4Zm-43.87.209H316.068l1.885-8.481h19.474ZM299-580.2H280.156l1.675-8.481h19.056Zm-26.7.1H251.259c.314-1.256.523-2.513.838-3.769,0,0,0-.209-.314-.209l-9-.1.942-4.4h30.468Zm-34.865.209H217.021l1.78-8.585h20.521Zm-26.908.1H192.417c.209-.942.524-2.827.524-3.036a9.732,9.732,0,0,0-1.989-5.549h20.835C211.472-585.436,211.053-582.714,210.53-579.782Zm-61.774-.419a3.99,3.99,0,0,0-1.047.314c-.314,0-.733.314-1.047.314H104.887l1.78-8.585h48.791C154.515-585.75,152.107-580.829,148.756-580.2Zm-51.408.838H77.665l1.885-8.586H99.233Zm-26.908.1H49.186l1.885-8.585H72.325Zm308.972-.628-1.989,8.795H357.111L359-579.887Zm-46.487,9h-54.34v-.628a6.179,6.179,0,0,0,.209-1.466,5.259,5.259,0,0,0,.209-1.256c.314-1.675.733-3.455,1.047-5.235.1,0,.1-.1.419-.1H298.9a2.6,2.6,0,0,0-.1.838c0,4.083,3.769,4.083,6.073,4.083l5.13-.1c.1,0,.314-.209.523-.1,2.932.523,4.921-3.246,5.34-4.921h19.684A77.1,77.1,0,0,1,332.925-570.883Zm-62.611.209H249.269l1.78-8.795H272.2Zm-34.865.1H214.927l1.885-8.795h20.521Zm-27.222.209H153.154l.838-4.188h22.72l10.261.209a8.22,8.22,0,0,1,1.466-.209c1.989-.1,3.35-3.036,3.769-4.712h18.113Zm-70.045-8.585h0Zm-14.449,8.795H102.9l1.78-8.69h21.15Zm-28.374.1H75.675l1.78-8.69H97.139Zm-27.118-.1c0,.1-.1.209-.419.209H47.092l1.885-8.69H70.231C69.6-575.8,68.974-572.976,68.241-570.15Zm309.077-.314-1.675,7.748H355.227l1.78-7.748Zm-45.44,1.675c-2.722,5.026-7.538,5.863-11.2,6.177l-18.113.419-13.088-.1c-2.513-.524-10.994-.419-10.994-6.177v-1.885h54.235C332.506-569.835,332.088-569.312,331.878-568.788Zm-63.449,6.6-20.94.314,1.675-8.271H270.1Zm-34.865.314H213.043l1.78-8.167h20.521Zm-26.28-5.863c-1.885,5.968-8.167,5.968-11.936,6.282l-5.968.209-17.066-.1c-2.2-.1-3.246-.209-3.56-.209H151.269l1.78-8.376h54.968C207.808-569.207,207.494-568.579,207.284-567.741Zm-85.645,6.387H101.118l1.675-8.271h20.835Zm-28.165-.419H73.9l1.571-7.748H95.15Zm-27.222.523H45.1l1.78-8.167H68.137Z" transform="translate(-0.5 720.5)" fill="#15bb94"/></svg>