<svg xmlns="http://www.w3.org/2000/svg" width="310" height="226.538" viewBox="0 0 310 226.538">
  <g id="sound-waves" transform="translate(0 -0.492)">
    <path id="Trazado_298" data-name="Trazado 298" d="M5.963,102.895A5.959,5.959,0,0,0,0,108.854v29.807a5.961,5.961,0,1,0,11.922,0V108.854A5.959,5.959,0,0,0,5.963,102.9Zm0,0" transform="translate(0 -12.978)" fill="#15bb94"/>
    <path id="Trazado_299" data-name="Trazado 299" d="M40.119,74.941A5.965,5.965,0,0,0,34.156,80.9v82.538a5.963,5.963,0,0,0,11.926,0V80.9a5.965,5.965,0,0,0-5.963-5.963Zm0,0" transform="translate(-4.329 -9.435)" fill="#15bb94"/>
    <path id="Trazado_300" data-name="Trazado 300" d="M74.228,27.8a5.962,5.962,0,0,0-5.963,5.959V200.684a5.963,5.963,0,0,0,11.926,0V33.76A5.962,5.962,0,0,0,74.228,27.8Zm0,0" transform="translate(-8.651 -3.461)" fill="#15bb94"/>
    <path id="Trazado_301" data-name="Trazado 301" d="M108.362,61.934A5.962,5.962,0,0,0,102.4,67.9V169.24a5.963,5.963,0,0,0,11.926,0V67.9a5.962,5.962,0,0,0-5.963-5.963Zm0,0" transform="translate(-12.977 -7.787)" fill="#15bb94"/>
    <path id="Trazado_302" data-name="Trazado 302" d="M211.428,45.406a5.959,5.959,0,0,0-5.959,5.963V185.494a5.961,5.961,0,0,0,11.922,0V51.369a5.962,5.962,0,0,0-5.963-5.963Zm0,0" transform="translate(-26.039 -5.692)" fill="#15bb94"/>
    <path id="Trazado_303" data-name="Trazado 303" d="M279.03,55.105a5.965,5.965,0,0,0-5.963,5.963V180.3a5.961,5.961,0,1,0,11.922,0V61.068a5.962,5.962,0,0,0-5.959-5.963Zm0,0" transform="translate(-34.606 -6.921)" fill="#15bb94"/>
    <path id="Trazado_304" data-name="Trazado 304" d="M313.162,89.238A5.965,5.965,0,0,0,307.2,95.2v59.614a5.961,5.961,0,1,0,11.922,0V95.2A5.962,5.962,0,0,0,313.162,89.238Zm0,0" transform="translate(-38.932 -11.247)" fill="#15bb94"/>
    <path id="Trazado_305" data-name="Trazado 305" d="M244.9.492a5.962,5.962,0,0,0-5.963,5.963V221.068a5.961,5.961,0,1,0,11.922,0V6.455A5.962,5.962,0,0,0,244.9.492Zm0,0" transform="translate(-30.28 0)" fill="#15bb94"/>
    <path id="Trazado_306" data-name="Trazado 306" d="M142.494,109.719a5.962,5.962,0,0,0-5.959,5.963v23.844a5.961,5.961,0,1,0,11.922,0V115.682A5.965,5.965,0,0,0,142.494,109.719Zm0,0" transform="translate(-17.303 -13.842)" fill="#15bb94"/>
    <path id="Trazado_307" data-name="Trazado 307" d="M347.295,107.434a5.962,5.962,0,0,0-5.963,5.959v25.8a5.963,5.963,0,1,0,11.926,0v-25.8A5.962,5.962,0,0,0,347.295,107.434Zm0,0" transform="translate(-43.257 -13.553)" fill="#15bb94"/>
    <path id="Trazado_308" data-name="Trazado 308" d="M175.987,94.418a5.959,5.959,0,0,0-5.963,5.959v48.528a5.961,5.961,0,1,0,11.922,0V100.377A5.959,5.959,0,0,0,175.987,94.418Zm0,0" transform="translate(-21.547 -11.903)" fill="#15bb94"/>
  </g>
</svg>
