<?xml version="1.0" standalone="no"?>
<!-- Generator: Adobe Fireworks 10, Export SVG Extension by Aaron Beall (http://fireworks.abeall.com) . Version: 0.6.1  -->
<!DOCTYPE svg PUBLIC "-//W3C//DTD SVG 1.1//EN" "http://www.w3.org/Graphics/SVG/1.1/DTD/svg11.dtd">
<svg id="logo.2-P%E1gina%201" viewBox="0 0 819 818" style="background-color:#33333300" version="1.1"
	xmlns="http://www.w3.org/2000/svg" xmlns:xlink="http://www.w3.org/1999/xlink" xml:space="preserve"
	x="0px" y="0px" width="819px" height="818px"
>
	<path d="M 553 26 C 557 28 560 34 564 40 C 572 50 580 62 585 74 C 591 87 597 106 600 120 C 603 133 604 159 604 161 C 604 268 532 397 465 499 C 454 492 452 470 452 460 L 464 352 C 465 310 419 215 363 215 C 321 215 298 257 298 286 C 298 289 300 303 303 311 C 306 319 323 327 328 336 C 334 345 337 357 342 368 C 343 369 346 370 348 370 C 354 370 356 367 358 359 L 356 310 C 352 297 364 280 377 280 C 401 280 405 321 405 331 C 405 366 383 407 370 443 C 366 453 364 466 362 476 C 346 483 328 486 312 486 C 264 486 220 454 207 394 C 205 383 202 363 202 361 L 202 324 C 204 304 208 282 214 262 C 226 220 265 155 317 132 C 318 131 321 130 323 128 C 323 127 321 125 319 125 C 297 125 242 157 228 168 C 217 177 204 187 193 198 C 145 249 133 305 133 359 C 133 385 135 411 144 437 C 110 417 96 358 96 329 L 96 298 C 85 306 80 338 80 354 C 80 383 88 412 108 441 C 88 438 59 424 43 399 C 43 398 42 397 40 397 C 40 398 39 399 39 402 C 39 434 107 502 130 521 L 72 509 C 73 515 74 519 76 523 C 150 681 288 741 409 741 C 510 741 627 700 711 579 L 655 579 L 654 579 C 717 541 739 473 750 421 C 753 407 758 380 758 378 L 758 374 L 756 372 C 736 395 716 429 688 447 C 712 408 713 369 718 330 L 718 262 C 715 254 716 241 711 231 C 710 232 708 234 708 236 C 703 260 706 287 695 313 C 687 332 665 365 640 374 C 651 334 657 289 662 250 L 662 195 C 658 152 649 103 623 60 C 766 150 819 293 819 408 C 819 637 633 818 410 818 C 206 818 46 674 9 496 C 6 481 0 443 0 424 L 0 395 C 14 141 217 0 408 0 C 456 0 508 7 553 26 Z" fill="#333333"/>
</svg>