<?xml version="1.0" standalone="no"?>
<!-- Generator: Adobe Fireworks 10, Export SVG Extension by Aaron Beall (http://fireworks.abeall.com) . Version: 0.6.1  -->
<!DOCTYPE svg PUBLIC "-//W3C//DTD SVG 1.1//EN" "http://www.w3.org/Graphics/SVG/1.1/DTD/svg11.dtd">
<svg id="logo.1-P%E1gina%201" viewBox="0 0 1071 1071" style="background-color:#ffffff00" version="1.1"
	xmlns="http://www.w3.org/2000/svg" xmlns:xlink="http://www.w3.org/1999/xlink" xml:space="preserve"
	x="0px" y="0px" width="1071px" height="1071px"
>
	<path id="Elipse" d="M 14 535.5 C 14 247.4798 247.4797 14 535.5 14 C 823.5203 14 1057 247.4798 1057 535.5 C 1057 823.5203 823.5203 1057 535.5 1057 C 247.4797 1057 14 823.5203 14 535.5 Z" stroke="#ffffff" stroke-width="28" fill="none"/>
	<path d="M 1015 535 C 1015 605 1000 673 968 743 C 963 741 958 738 953 735 C 981 678 992 621 998 564 L 998 506 C 994 479 991 451 984 423 C 965 352 933 280 864 210 C 791 135 710 100 636 83 C 630 82 573 73 563 73 L 507 73 C 482 75 459 78 435 83 C 336 103 205 178 137 299 C 129 312 121 328 114 343 C 107 357 101 373 96 388 C 91 402 87 419 83 435 C 82 440 73 497 73 507 L 73 563 C 77 621 90 677 118 735 C 114 738 109 740 104 743 C 78 692 64 636 58 583 C 57 576 56 562 56 560 L 56 511 C 81 215 313 56 536 56 C 801 56 1015 272 1015 535 ZM 679 152 C 683 154 686 160 690 166 C 698 176 706 188 711 200 C 717 213 723 232 726 246 C 729 259 730 285 730 287 C 730 394 658 523 591 625 C 580 618 578 596 578 586 L 590 478 C 591 436 545 341 489 341 C 447 341 424 383 424 412 C 424 415 426 429 429 437 C 432 445 449 453 454 462 C 460 471 463 483 468 494 C 469 495 472 496 474 496 C 480 496 482 493 484 485 L 482 436 C 478 423 490 406 503 406 C 527 406 531 447 531 457 C 531 492 509 533 496 569 C 492 579 490 592 488 602 C 472 609 454 612 438 612 C 390 612 346 580 333 520 C 331 509 328 489 328 487 L 328 450 C 330 430 334 408 340 388 C 352 346 391 281 443 258 C 444 257 447 256 449 254 C 449 253 447 251 445 251 C 423 251 368 283 354 294 C 343 303 330 313 319 324 C 271 375 259 431 259 485 C 259 511 261 537 270 563 C 236 543 222 484 222 455 L 222 424 C 211 432 206 464 206 480 C 206 509 214 538 234 567 C 214 564 185 550 169 525 C 169 524 168 523 166 523 C 166 524 165 525 165 528 C 165 560 233 628 256 647 L 198 635 C 199 641 200 645 202 649 C 276 807 414 867 535 867 C 636 867 753 826 837 705 L 781 705 L 780 705 C 843 667 865 599 876 547 C 879 533 884 506 884 504 L 884 500 L 882 498 C 862 521 842 555 814 573 C 838 534 839 495 844 456 L 844 388 C 841 380 842 367 837 357 C 836 358 834 360 834 362 C 829 386 832 413 821 439 C 813 458 791 491 766 500 C 777 460 783 415 788 376 L 788 321 C 784 278 775 229 749 186 C 892 276 945 419 945 534 C 945 763 759 944 536 944 C 332 944 172 800 135 622 C 132 607 126 569 126 550 L 126 521 C 140 267 343 126 534 126 C 582 126 634 133 679 152 ZM 179 757 C 179 765 175 765 165 772 C 164 770 162 767 160 764 C 163 762 170 758 170 756 C 170 753 170 755 169 753 C 168 753 168 752 166 752 C 163 752 159 754 157 758 C 154 763 154 770 152 776 C 150 783 137 790 132 790 C 123 790 120 779 120 775 C 120 767 125 766 133 760 C 135 762 136 765 138 768 C 135 770 129 774 129 776 C 129 779 130 780 132 780 C 140 780 144 767 145 765 C 142 754 158 742 167 742 C 175 742 179 753 179 757 ZM 952 772 C 951 774 950 777 948 780 C 944 779 940 777 936 775 C 934 777 933 780 931 782 C 934 785 941 789 941 791 C 941 794 938 797 937 799 C 921 787 889 760 889 758 C 889 755 892 751 895 747 L 952 772 ZM 189 772 L 161 800 L 163 802 L 197 782 C 198 784 200 787 202 789 L 172 819 L 174 821 L 209 800 C 210 801 212 804 215 807 L 160 838 C 158 835 153 830 153 828 C 153 825 165 816 173 808 L 171 806 C 163 811 155 816 147 820 C 145 817 142 813 140 809 L 184 764 C 186 766 188 769 189 772 ZM 926 771 C 926 772 925 774 924 775 C 921 774 917 770 914 767 C 919 768 923 770 926 771 ZM 931 808 C 929 810 927 813 925 816 C 918 812 911 809 904 806 L 902 808 C 908 813 915 818 921 822 C 920 824 918 827 915 829 L 866 793 C 867 790 869 787 871 785 L 892 794 L 894 792 C 888 787 882 783 876 778 C 877 776 879 773 880 771 L 931 808 ZM 907 840 C 906 843 903 846 901 847 L 854 808 C 855 806 857 803 859 800 L 907 840 ZM 855 819 C 854 821 851 824 850 826 L 889 862 C 888 864 885 867 884 869 C 871 858 857 845 844 833 L 838 839 C 836 837 832 835 832 833 C 832 830 843 820 849 813 L 855 819 ZM 229 823 L 190 873 C 189 872 184 868 184 866 C 184 863 189 859 192 856 C 190 854 188 851 186 849 C 183 851 179 854 175 857 C 174 855 171 852 169 850 L 220 814 C 224 817 227 821 229 823 ZM 246 840 C 242 847 237 855 233 862 L 235 864 C 240 858 246 852 251 846 C 253 847 256 850 258 852 L 216 899 L 209 892 C 213 885 218 877 222 870 L 220 868 C 215 874 209 881 204 887 C 202 886 199 883 197 881 L 238 834 C 240 835 243 838 246 840 ZM 870 882 C 869 884 866 889 863 889 C 861 889 849 879 841 875 C 845 881 852 888 858 895 C 856 897 853 899 851 901 L 809 855 C 810 853 813 850 815 848 L 837 863 L 839 861 L 821 842 L 827 836 L 870 882 ZM 197 847 C 196 846 196 847 196 844 C 196 842 202 838 205 837 C 204 840 200 844 197 847 ZM 808 866 C 805 869 798 873 798 876 C 798 878 805 885 808 889 C 811 888 814 885 818 881 C 820 883 822 886 824 888 C 821 891 818 894 815 896 C 817 900 822 905 826 910 C 829 908 833 904 836 901 C 838 902 840 905 842 908 C 837 913 831 918 825 923 L 785 874 C 790 870 796 865 802 859 C 804 861 806 864 808 866 ZM 295 886 C 295 887 290 901 286 901 C 283 901 281 897 279 896 C 281 893 285 889 285 886 C 285 884 283 883 282 882 C 273 889 262 906 255 917 L 255 921 C 256 922 255 923 258 923 C 260 923 264 917 266 914 C 268 915 271 917 274 919 C 267 926 266 932 259 932 C 250 932 245 923 245 919 C 245 911 274 874 275 874 C 276 873 278 873 280 873 C 286 873 295 879 295 886 ZM 792 895 C 790 896 787 898 785 900 C 782 898 778 891 776 891 C 773 891 775 891 773 892 C 773 893 772 892 772 895 C 772 896 792 927 798 932 C 799 932 802 931 802 929 C 802 926 796 919 793 914 C 792 914 791 914 790 914 C 789 913 787 910 785 907 C 788 905 792 902 795 900 C 800 907 811 919 811 928 C 811 937 800 942 796 942 C 786 942 767 906 765 903 C 763 900 763 897 763 894 C 763 887 771 881 777 881 C 783 881 787 889 792 895 ZM 312 894 L 285 938 L 285 943 C 286 943 286 944 289 944 C 291 944 308 914 318 898 C 320 899 323 901 326 902 C 322 908 299 954 290 954 C 283 954 275 946 275 940 C 275 933 301 893 304 889 C 306 890 309 892 312 894 ZM 765 924 C 765 926 763 929 762 931 L 785 950 C 783 952 779 955 776 956 C 771 950 765 944 759 938 L 757 940 C 761 947 765 954 769 961 C 767 962 764 964 762 966 L 729 911 C 737 906 742 902 747 902 C 753 902 765 918 765 924 ZM 353 923 C 353 925 349 933 346 938 C 344 937 341 935 338 934 C 339 931 343 926 343 923 C 343 921 341 920 339 919 C 335 923 332 928 332 931 C 332 933 338 948 338 950 C 338 956 329 973 322 973 C 315 973 307 965 307 959 C 307 957 311 950 313 945 C 316 946 321 947 321 950 C 321 952 318 955 317 957 L 317 962 C 318 962 318 963 321 963 C 324 963 328 951 328 950 C 328 947 323 933 323 931 C 323 927 327 910 337 910 C 344 910 353 916 353 923 ZM 748 913 C 750 916 752 920 754 923 L 754 926 L 752 928 C 749 925 744 917 744 915 C 744 912 744 914 745 913 L 748 913 ZM 752 970 C 750 972 747 973 744 975 C 742 971 739 967 737 963 C 735 964 732 966 729 968 C 731 972 733 977 733 979 C 733 982 728 983 725 984 L 707 923 C 709 918 714 919 717 917 L 752 970 ZM 383 931 C 382 933 380 936 379 939 C 377 938 374 937 372 936 L 351 986 C 349 985 346 984 343 983 L 363 933 C 361 931 358 930 356 929 C 357 925 358 922 359 920 C 367 924 375 927 383 931 ZM 411 948 C 411 950 400 980 393 996 C 392 999 387 1000 385 1000 C 376 1000 371 993 371 987 C 371 979 385 941 389 938 C 390 936 394 936 396 936 C 405 936 411 940 411 948 ZM 669 960 C 667 960 664 961 660 962 C 658 958 659 951 654 951 C 650 951 651 954 651 955 C 651 973 679 964 679 994 C 679 1003 668 1007 664 1007 C 655 1007 652 996 651 989 C 654 988 657 987 660 986 C 661 989 661 997 665 997 C 668 997 670 996 670 993 C 670 991 668 986 666 984 C 663 977 655 977 650 973 C 644 970 641 958 641 953 C 641 945 649 942 655 942 C 664 942 668 949 669 960 ZM 428 945 C 428 976 427 979 427 981 C 427 984 427 986 429 988 L 448 951 C 451 952 454 953 457 953 L 442 1015 C 437 1014 435 1014 433 1013 C 435 1006 437 998 439 990 L 437 988 L 426 1011 C 423 1011 421 1010 420 1010 L 419 984 C 417 991 415 999 413 1007 C 409 1007 407 1006 404 1006 L 419 943 C 421 944 424 945 428 945 ZM 731 955 C 730 955 728 956 727 957 C 726 953 724 948 723 943 C 725 946 729 951 731 955 ZM 400 947 L 400 951 L 386 989 L 382 989 L 382 984 L 396 947 L 400 947 ZM 636 957 C 634 958 623 957 623 963 C 623 964 625 978 628 978 C 630 978 633 977 638 976 C 638 978 639 981 640 984 C 636 985 632 986 628 988 C 629 993 630 999 632 1005 C 636 1004 641 1003 645 1002 C 646 1005 646 1008 647 1011 C 642 1012 634 1015 631 1015 L 624 1015 L 612 953 C 619 952 627 950 635 948 C 635 950 635 952 636 957 ZM 606 972 L 606 975 C 605 975 603 976 597 976 C 597 975 597 964 592 964 C 589 964 588 966 588 968 C 588 988 611 978 611 1008 C 611 1010 610 1013 609 1015 L 586 1015 C 585 1012 584 1006 584 1004 C 584 998 587 1001 592 999 C 593 1002 593 1006 594 1011 C 596 1011 597 1012 601 1011 L 601 1001 C 600 1000 599 996 597 995 C 593 991 586 988 582 983 C 579 978 579 970 579 967 C 579 959 585 955 593 955 C 603 955 606 965 606 972 ZM 506 971 C 506 973 505 980 504 984 C 504 986 502 989 500 991 C 501 993 503 996 503 999 C 503 1001 502 1009 501 1014 L 502 1015 L 475 1015 C 478 995 480 976 482 957 C 492 958 506 955 506 971 ZM 573 968 L 573 980 C 572 980 571 981 564 981 C 563 979 566 968 560 968 C 555 968 556 973 556 974 C 556 989 574 987 574 999 L 574 1015 L 565 1015 C 565 1011 566 1005 564 1002 C 561 995 552 991 548 984 C 547 981 547 976 547 973 C 547 964 550 959 560 959 C 564 959 573 961 573 968 ZM 539 1015 L 530 1015 C 528 1010 528 1011 525 1011 C 524 1011 521 1009 520 1015 L 511 1015 L 519 960 L 532 960 L 539 1015 ZM 494 968 C 495 969 496 970 496 972 C 496 975 495 980 494 984 L 490 984 C 490 970 491 969 490 968 L 494 968 ZM 524 1000 L 524 989 C 525 988 525 986 526 986 C 526 989 528 987 524 1000 ZM 492 996 C 493 997 493 996 493 999 C 493 1001 492 1008 490 1012 C 485 1010 486 1009 486 1008 C 486 1005 487 1000 486 996 L 492 996 ZM 557 1003 C 558 1007 558 1011 560 1015 L 548 1015 C 549 1011 549 1007 548 1003 L 557 1003 Z" fill="#ffffff"/>
</svg>